<?xml version="1.0" encoding="UTF-8" standalone="no"?>
<!-- Created with Inkscape (http://www.inkscape.org/) -->

<svg
   xmlns:dc="http://purl.org/dc/elements/1.1/"
   xmlns:cc="http://creativecommons.org/ns#"
   xmlns:rdf="http://www.w3.org/1999/02/22-rdf-syntax-ns#"
   xmlns:svg="http://www.w3.org/2000/svg"
   xmlns="http://www.w3.org/2000/svg"
   xmlns:sodipodi="http://sodipodi.sourceforge.net/DTD/sodipodi-0.dtd"
   xmlns:inkscape="http://www.inkscape.org/namespaces/inkscape"
   width="76"
   height="76"
   id="svg2"
   version="1.1"
   inkscape:version="0.47 r22583"
   sodipodi:docname="category_76x.svg">
  <defs
     id="defs4">
    <inkscape:perspective
       sodipodi:type="inkscape:persp3d"
       inkscape:vp_x="0 : 526.18109 : 1"
       inkscape:vp_y="0 : 1000 : 0"
       inkscape:vp_z="744.09448 : 526.18109 : 1"
       inkscape:persp3d-origin="372.04724 : 350.78739 : 1"
       id="perspective10" />
    <inkscape:perspective
       id="perspective5190"
       inkscape:persp3d-origin="0.5 : 0.33333333 : 1"
       inkscape:vp_z="1 : 0.5 : 1"
       inkscape:vp_y="0 : 1000 : 0"
       inkscape:vp_x="0 : 0.5 : 1"
       sodipodi:type="inkscape:persp3d" />
  </defs>
  <sodipodi:namedview
     id="base"
     pagecolor="#ffffff"
     bordercolor="#666666"
     borderopacity="1.0"
     inkscape:pageopacity="0.0"
     inkscape:pageshadow="2"
     inkscape:zoom="4"
     inkscape:cx="93"
     inkscape:cy="43.13996"
     inkscape:document-units="px"
     inkscape:current-layer="layer1"
     showgrid="false"
     inkscape:window-width="1326"
     inkscape:window-height="739"
     inkscape:window-x="0"
     inkscape:window-y="1"
     inkscape:window-maximized="1" />
  <metadata
     id="metadata7">
    <rdf:RDF>
      <cc:Work
         rdf:about="">
        <dc:format>image/svg+xml</dc:format>
        <dc:type
           rdf:resource="http://purl.org/dc/dcmitype/StillImage" />
        <dc:title></dc:title>
      </cc:Work>
    </rdf:RDF>
  </metadata>
  <g
     inkscape:label="Layer 1"
     inkscape:groupmode="layer"
     id="layer1"
     transform="translate(-282,-402.9336)">
    <path
       sodipodi:type="arc"
       style="fill:#ffffff;fill-opacity:1;stroke:none;display:inline"
       id="path5583"
       sodipodi:cx="1219"
       sodipodi:cy="-667"
       sodipodi:rx="38"
       sodipodi:ry="38"
       d="m 1257,-667 c 0,20.98682 -17.0132,38 -38,38 -20.9868,0 -38,-17.01318 -38,-38 0,-20.98682 17.0132,-38 38,-38 20.9868,0 38,17.01318 38,38 z"
       transform="translate(-899,1107.9336)"
       inkscape:export-filename="/home/sibevin/Dropbox/art/final/scs/export/menu/category_76x.png"
       inkscape:export-xdpi="90"
       inkscape:export-ydpi="90" />
    <path
       id="path5585"
       d="m 319.41049,421.15813 a 2.0001998,2.0001998 0 0 0 -0.75,0.3126 l -20.3124,12.625 a 2.0001998,2.0001998 0 0 0 -0.9376,1.9376 l 1.5,12.3748 a 2.0001998,2.0001998 0 0 0 1.125,1.5626 l 22.25,10.5626 a 2.0001998,2.0001998 0 0 0 2.1874,-0.3126 l 16.75,-15.0626 a 2.0001998,2.0001998 0 0 0 0.6252,-1.3124 l 0.75,-12.5624 a 2.0001998,2.0001998 0 0 0 -1.25,-2 l -20.9376,-8 a 2.0001998,2.0001998 0 0 0 -1,-0.126 z m 0.4376,3.1252 8.1874,3.1248 -7.5626,5.3126 -8.6874,-3.4374 8.0626,-5 z m 10.4374,4 8.375,3.1874 -6.9376,5.6874 -9.0624,-3.5624 7.625,-5.3124 z m -20.5626,2.3124 8.8126,3.5 -7.625,5.3124 -9.25,-3.8124 8.0624,-5 z m 29.75,2.75 -0.6248,9.875 -14.6876,13.25 0,-10.5 15.3124,-12.625 z m -18.75,1.625 9.25,3.625 -6.9374,5.75 -9.9374,-4.0624 7.6248,-5.3126 z m -20.1248,2.375 21.5624,8.8124 0,11 -20.375,-9.6248 -1.1874,-10.1876 z"
       style="font-size:medium;font-style:normal;font-variant:normal;font-weight:normal;font-stretch:normal;text-indent:0;text-align:start;text-decoration:none;line-height:normal;letter-spacing:normal;word-spacing:normal;text-transform:none;direction:ltr;block-progression:tb;writing-mode:lr-tb;text-anchor:start;color:#000000;fill:#808080;fill-opacity:1;fill-rule:nonzero;stroke:none;stroke-width:1.99999975999999990;marker:none;visibility:visible;display:inline;overflow:visible;enable-background:accumulate;font-family:'.Helvetica Light';-inkscape-font-specification:'.Helvetica Light'"
       inkscape:export-filename="/home/sibevin/Dropbox/art/final/scs/export/menu/category_76x.png"
       inkscape:export-xdpi="90"
       inkscape:export-ydpi="90" />
  </g>
</svg>
