<?xml version="1.0" encoding="UTF-8" standalone="no"?>
<!-- Created with Inkscape (http://www.inkscape.org/) -->

<svg
   xmlns:dc="http://purl.org/dc/elements/1.1/"
   xmlns:cc="http://creativecommons.org/ns#"
   xmlns:rdf="http://www.w3.org/1999/02/22-rdf-syntax-ns#"
   xmlns:svg="http://www.w3.org/2000/svg"
   xmlns="http://www.w3.org/2000/svg"
   xmlns:sodipodi="http://sodipodi.sourceforge.net/DTD/sodipodi-0.dtd"
   xmlns:inkscape="http://www.inkscape.org/namespaces/inkscape"
   width="76"
   height="76"
   id="svg2"
   version="1.1"
   inkscape:version="0.47 r22583"
   sodipodi:docname="tag_76x.svg">
  <defs
     id="defs4">
    <inkscape:perspective
       sodipodi:type="inkscape:persp3d"
       inkscape:vp_x="0 : 526.18109 : 1"
       inkscape:vp_y="0 : 1000 : 0"
       inkscape:vp_z="744.09448 : 526.18109 : 1"
       inkscape:persp3d-origin="372.04724 : 350.78739 : 1"
       id="perspective10" />
    <inkscape:perspective
       id="perspective5190"
       inkscape:persp3d-origin="0.5 : 0.33333333 : 1"
       inkscape:vp_z="1 : 0.5 : 1"
       inkscape:vp_y="0 : 1000 : 0"
       inkscape:vp_x="0 : 0.5 : 1"
       sodipodi:type="inkscape:persp3d" />
    <inkscape:perspective
       id="perspective5218"
       inkscape:persp3d-origin="0.5 : 0.33333333 : 1"
       inkscape:vp_z="1 : 0.5 : 1"
       inkscape:vp_y="0 : 1000 : 0"
       inkscape:vp_x="0 : 0.5 : 1"
       sodipodi:type="inkscape:persp3d" />
  </defs>
  <sodipodi:namedview
     id="base"
     pagecolor="#ffffff"
     bordercolor="#666666"
     borderopacity="1.0"
     inkscape:pageopacity="0.0"
     inkscape:pageshadow="2"
     inkscape:zoom="4"
     inkscape:cx="86"
     inkscape:cy="19.88996"
     inkscape:document-units="px"
     inkscape:current-layer="layer1"
     showgrid="false"
     inkscape:window-width="1326"
     inkscape:window-height="739"
     inkscape:window-x="0"
     inkscape:window-y="1"
     inkscape:window-maximized="1" />
  <metadata
     id="metadata7">
    <rdf:RDF>
      <cc:Work
         rdf:about="">
        <dc:format>image/svg+xml</dc:format>
        <dc:type
           rdf:resource="http://purl.org/dc/dcmitype/StillImage" />
        <dc:title></dc:title>
      </cc:Work>
    </rdf:RDF>
  </metadata>
  <g
     inkscape:label="Layer 1"
     inkscape:groupmode="layer"
     id="layer1"
     transform="translate(-206.25,-354.9336)">
    <path
       transform="translate(-974.75,1059.9336)"
       d="m 1257,-667 c 0,20.98682 -17.0132,38 -38,38 -20.9868,0 -38,-17.01318 -38,-38 0,-20.98682 17.0132,-38 38,-38 20.9868,0 38,17.01318 38,38 z"
       sodipodi:ry="38"
       sodipodi:rx="38"
       sodipodi:cy="-667"
       sodipodi:cx="1219"
       id="path5579"
       style="fill:#ffffff;fill-opacity:1;stroke:none;display:inline"
       sodipodi:type="arc"
       inkscape:export-filename="/home/sibevin/Dropbox/art/final/scs/export/menu/tag_76x.png"
       inkscape:export-xdpi="90"
       inkscape:export-ydpi="90" />
    <path
       id="path5581"
       d="m 224.48429,371.98422 a 1.50015,1.50015 0 0 0 -1.1874,1.625 l 1.1246,12.125 a 1.50015,1.50015 0 0 0 0.4378,0.875 l 25.6874,25.6874 c 2.136,2.1362 5.6136,2.1365 7.7502,2e-4 l 5.3122,-5.2502 c 2.1364,-2.1361 2.1362,-5.6762 2e-4,-7.8124 l -25.6876,-25.6874 a 1.50015,1.50015 0 0 0 -0.9376,-0.3752 l -12.0626,-1.1874 a 1.50015,1.50015 0 0 0 -0.4372,0 z m 1.9998,3.1249 9.6874,1.0001 25.3126,25.25 c 0.9978,0.9979 0.9976,2.5649 0,3.5624 l -5.25,5.25 c -0.9976,0.9979 -2.5646,0.9979 -3.5626,0 l -25.3124,-25.3124 -0.875,-9.75 z m 6.3126,3.6875 c -1.2818,0.1 -2.3346,1.1121 -2.4998,2.4376 -0.19,1.5151 0.86,2.8736 2.3748,3.0626 1.515,0.19 2.936,-0.9223 3.1252,-2.4376 0.188,-1.515 -0.9226,-2.8733 -2.4376,-3.0622 -0.188,-0.024 -0.3794,-0.02 -0.5624,-2e-4 z"
       style="font-size:medium;font-style:normal;font-variant:normal;font-weight:normal;font-stretch:normal;text-indent:0;text-align:start;text-decoration:none;line-height:normal;letter-spacing:normal;word-spacing:normal;text-transform:none;direction:ltr;block-progression:tb;writing-mode:lr-tb;text-anchor:start;color:#000000;fill:#808080;fill-opacity:1;fill-rule:nonzero;stroke:none;stroke-width:1.50000000000000000;marker:none;visibility:visible;display:inline;overflow:visible;enable-background:accumulate;font-family:'.Helvetica Light';-inkscape-font-specification:'.Helvetica Light'"
       inkscape:export-filename="/home/sibevin/Dropbox/art/final/scs/export/menu/tag_76x.png"
       inkscape:export-xdpi="90"
       inkscape:export-ydpi="90" />
  </g>
</svg>
