<?xml version="1.0" encoding="UTF-8" standalone="no"?>
<!-- Created with Inkscape (http://www.inkscape.org/) -->

<svg
   xmlns:dc="http://purl.org/dc/elements/1.1/"
   xmlns:cc="http://creativecommons.org/ns#"
   xmlns:rdf="http://www.w3.org/1999/02/22-rdf-syntax-ns#"
   xmlns:svg="http://www.w3.org/2000/svg"
   xmlns="http://www.w3.org/2000/svg"
   xmlns:sodipodi="http://sodipodi.sourceforge.net/DTD/sodipodi-0.dtd"
   xmlns:inkscape="http://www.inkscape.org/namespaces/inkscape"
   width="76"
   height="76"
   id="svg5098"
   version="1.1"
   inkscape:version="0.47 r22583"
   sodipodi:docname="新文件 4">
  <defs
     id="defs5100">
    <inkscape:perspective
       sodipodi:type="inkscape:persp3d"
       inkscape:vp_x="0 : 526.18109 : 1"
       inkscape:vp_y="0 : 1000 : 0"
       inkscape:vp_z="744.09448 : 526.18109 : 1"
       inkscape:persp3d-origin="372.04724 : 350.78739 : 1"
       id="perspective5106" />
    <inkscape:perspective
       id="perspective5130"
       inkscape:persp3d-origin="0.5 : 0.33333333 : 1"
       inkscape:vp_z="1 : 0.5 : 1"
       inkscape:vp_y="0 : 1000 : 0"
       inkscape:vp_x="0 : 0.5 : 1"
       sodipodi:type="inkscape:persp3d" />
  </defs>
  <sodipodi:namedview
     id="base"
     pagecolor="#ffffff"
     bordercolor="#666666"
     borderopacity="1.0"
     inkscape:pageopacity="0.0"
     inkscape:pageshadow="2"
     inkscape:zoom="1"
     inkscape:cx="-28.8571"
     inkscape:cy="47.42856"
     inkscape:document-units="px"
     inkscape:current-layer="layer1"
     showgrid="false"
     inkscape:window-width="613"
     inkscape:window-height="504"
     inkscape:window-x="329"
     inkscape:window-y="227"
     inkscape:window-maximized="0" />
  <metadata
     id="metadata5103">
    <rdf:RDF>
      <cc:Work
         rdf:about="">
        <dc:format>image/svg+xml</dc:format>
        <dc:type
           rdf:resource="http://purl.org/dc/dcmitype/StillImage" />
        <dc:title></dc:title>
      </cc:Work>
    </rdf:RDF>
  </metadata>
  <g
     inkscape:label="Layer 1"
     inkscape:groupmode="layer"
     id="layer1"
     transform="translate(-144.8571,-1022.9336)">
    <path
       transform="translate(-1036.1429,1727.9336)"
       d="m 1257,-667 c 0,20.98682 -17.0132,38 -38,38 -20.9868,0 -38,-17.01318 -38,-38 0,-20.98682 17.0132,-38 38,-38 20.9868,0 38,17.01318 38,38 z"
       sodipodi:ry="38"
       sodipodi:rx="38"
       sodipodi:cy="-667"
       sodipodi:cx="1219"
       id="path5589"
       style="fill:#ffffff;fill-opacity:1;stroke:none;display:inline"
       sodipodi:type="arc"
       inkscape:export-filename="/home/sibevin/Dropbox/art/final/scs/export/menu/work_76x.png"
       inkscape:export-xdpi="90"
       inkscape:export-ydpi="90" />
    <path
       id="path5591"
       d="m 197.57473,1037.4961 -28.8748,0.9376 a 1.50015,1.50015 0 0 0 -1.1252,2.4374 l 4.25,5.3126 c -2.9522,1.978 -5.2274,4.0732 -6.5,6.4374 -1.4842,2.7582 -1.8286,5.7806 -1.25,8.75 1.0982,5.6324 5.3302,11.25 10.6252,17 l -2,3 a 1.50015,1.50015 0 0 0 1.25,2.3126 l 18.1874,0 a 1.50015,1.50015 0 0 0 0.875,-2.75 l -3.4376,-2.4376 c 2.9506,-5.6708 7.261,-11.9346 9.25,-17.6876 1.0582,-3.0594 1.5048,-6.1324 0.25,-8.8124 -1.0118,-2.1618 -3.3646,-3.6734 -6.4374,-4.8124 l 6.1874,-7.25 a 1.50015,1.50015 0 0 0 -1.25,-2.4376 z m -3.3124,3.125 -5.25,6.125 a 1.50015,1.50015 0 0 0 0.8124,2.4376 c 3.937,0.9658 5.7322,2.422 6.5,4.0624 0.5482,1.1708 0.6498,2.6498 0.3126,4.375 l -1.3126,-2.5 -3.8748,10.1874 2.0624,-0.124 c -2.2302,4.1768 -5.1158,8.724 -7.25,13.0624 a 1.50015,1.50015 0 0 0 0.4376,1.875 l 0.8124,0.5626 -10.8124,0 1.0624,-1.5626 a 1.50015,1.50015 0 0 0 -0.124,-1.875 c -5.5712,-5.9232 -9.6192,-11.6002 -10.5626,-16.4376 -0.076,-0.3898 -0.148,-0.746 -0.188,-1.1248 l 2.5,4.8124 3.6874,-9.9376 -5.5,0.3126 c 0.116,-0.273 0.2292,-0.5416 0.3752,-0.8126 1.1506,-2.138 3.288,-4.2672 6.75,-6.3124 a 1.50015,1.50015 0 0 0 0.4374,-2.25 l -3.375,-4.1876 22.5,-0.6874 z m -0.124,12.5 -8.375,0.5626 4.625,9.1874 3.75,-9.75 z m -10.5,0.6874 -8.4374,0.6252 4.6874,9.3124 3.75,-9.9376 z m 1.125,2.0626 -3.8124,10.125 8.6248,-0.5624 -4.8124,-9.5626 z m -10.5,0.8126 -3.8124,10.0624 8.6248,-0.5624 -4.8124,-9.5 z"
       style="font-size:medium;font-style:normal;font-variant:normal;font-weight:normal;font-stretch:normal;text-indent:0;text-align:start;text-decoration:none;line-height:normal;letter-spacing:normal;word-spacing:normal;text-transform:none;direction:ltr;block-progression:tb;writing-mode:lr-tb;text-anchor:start;color:#000000;fill:#000000;fill-opacity:1;stroke:none;stroke-width:1.5;marker:none;visibility:visible;display:inline;overflow:visible;enable-background:accumulate;font-family:'.Helvetica Light';-inkscape-font-specification:'.Helvetica Light'"
       inkscape:export-filename="/home/sibevin/Dropbox/art/final/scs/export/menu/work_76x.png"
       inkscape:export-xdpi="90"
       inkscape:export-ydpi="90" />
  </g>
</svg>
