<?xml version="1.0" encoding="UTF-8" standalone="no"?><!DOCTYPE svg PUBLIC "-//W3C//DTD SVG 1.1//EN" "http://www.w3.org/Graphics/SVG/1.1/DTD/svg11.dtd"><svg width="100%" height="100%" viewBox="0 0 48 48" version="1.1" xmlns="http://www.w3.org/2000/svg" xmlns:xlink="http://www.w3.org/1999/xlink" xml:space="preserve" style="fill-rule:evenodd;clip-rule:evenodd;stroke-linejoin:round;stroke-miterlimit:1.41421;"><path d="M18.861,31.913c1.475,0 2.673,1.198 2.673,2.673c0,1.475 -1.198,2.673 -2.673,2.673c-1.475,0 -2.672,-1.198 -2.672,-2.673c0,-1.475 1.197,-2.673 2.672,-2.673ZM36.673,32.288c0.093,0.005 0.185,0.013 0.276,0.028c0.244,0.039 0.482,0.118 0.7,0.233c0.274,0.144 0.518,0.343 0.713,0.582c0.176,0.216 0.312,0.463 0.4,0.727c0.197,0.589 0.144,1.246 -0.145,1.797c-0.1,0.191 -0.228,0.368 -0.378,0.524c-0.149,0.156 -0.321,0.291 -0.508,0.399c-0.241,0.139 -0.507,0.233 -0.782,0.278c-0.091,0.015 -0.183,0.022 -0.276,0.028c-3.197,0.064 -6.395,0.002 -9.592,0.002c-0.093,-0.002 -0.185,-0.006 -0.278,-0.017c-0.245,-0.03 -0.485,-0.099 -0.708,-0.205c-0.28,-0.133 -0.531,-0.322 -0.736,-0.553c-0.184,-0.208 -0.33,-0.45 -0.429,-0.71c-0.088,-0.231 -0.138,-0.476 -0.148,-0.723c-0.025,-0.621 0.209,-1.237 0.64,-1.685c0.15,-0.156 0.321,-0.291 0.509,-0.399c0.24,-0.139 0.506,-0.234 0.781,-0.278c0.091,-0.015 0.183,-0.023 0.276,-0.028c3.228,-0.065 6.457,-0.065 9.685,0ZM18.484,21.236c1.445,0 2.618,1.173 2.618,2.617c0,1.445 -1.173,2.617 -2.618,2.617c-1.444,0 -2.617,-1.172 -2.617,-2.617c0,-1.444 1.173,-2.617 2.617,-2.617ZM36.296,21.555c0.093,0.006 0.185,0.013 0.276,0.028c0.244,0.04 0.482,0.119 0.7,0.234c0.274,0.143 0.518,0.342 0.713,0.582c0.176,0.215 0.312,0.462 0.4,0.726c0.069,0.205 0.108,0.42 0.117,0.636c0.025,0.621 -0.209,1.237 -0.64,1.686c-0.149,0.155 -0.321,0.29 -0.508,0.398c-0.241,0.139 -0.507,0.234 -0.782,0.278c-0.091,0.015 -0.183,0.023 -0.276,0.028c-3.197,0.065 -6.395,0.002 -9.592,0.002c-0.093,-0.002 -0.185,-0.005 -0.278,-0.017c-0.276,-0.033 -0.545,-0.117 -0.791,-0.246c-0.192,-0.101 -0.369,-0.228 -0.525,-0.378c-0.448,-0.431 -0.706,-1.037 -0.706,-1.659c0,-0.247 0.04,-0.494 0.118,-0.728c0.088,-0.264 0.224,-0.511 0.4,-0.726c0.195,-0.24 0.439,-0.439 0.713,-0.582c0.218,-0.115 0.456,-0.194 0.7,-0.234c0.091,-0.015 0.183,-0.022 0.276,-0.028c3.228,-0.065 6.457,-0.065 9.685,0ZM12.504,10.478c1.473,0 2.669,1.197 2.669,2.67c0,1.473 -1.196,2.669 -2.669,2.669c-1.474,0 -2.67,-1.196 -2.67,-2.669c0,-1.473 1.196,-2.67 2.67,-2.67ZM36.204,15.448l-16,0c-0.133,-0.004 -0.262,-0.011 -0.393,-0.034c-0.345,-0.06 -0.676,-0.199 -0.959,-0.405c-0.463,-0.337 -0.789,-0.844 -0.903,-1.404c-0.043,-0.215 -0.056,-0.436 -0.037,-0.654c0.019,-0.218 0.069,-0.433 0.148,-0.638c0.096,-0.244 0.233,-0.473 0.405,-0.671c0.201,-0.232 0.449,-0.423 0.724,-0.558c0.236,-0.116 0.491,-0.191 0.752,-0.221c0.117,-0.013 0.146,-0.012 0.263,-0.015c6.377,0 9.756,-0.178 16.131,0.004c0.132,0.011 0.261,0.026 0.39,0.056c0.298,0.069 0.582,0.199 0.831,0.379c0.177,0.129 0.335,0.283 0.469,0.456c0.349,0.454 0.519,1.032 0.47,1.602c-0.019,0.218 -0.069,0.433 -0.148,0.637c-0.095,0.245 -0.233,0.473 -0.405,0.672c-0.201,0.232 -0.448,0.423 -0.724,0.558c-0.235,0.116 -0.491,0.191 -0.752,0.221c-0.116,0.013 -0.146,0.012 -0.262,0.015Z" style="fill:#808080;"/></svg>