<?xml version="1.0" encoding="UTF-8" standalone="no"?><!DOCTYPE svg PUBLIC "-//W3C//DTD SVG 1.1//EN" "http://www.w3.org/Graphics/SVG/1.1/DTD/svg11.dtd"><svg width="100%" height="100%" viewBox="0 0 48 48" version="1.1" xmlns="http://www.w3.org/2000/svg" xmlns:xlink="http://www.w3.org/1999/xlink" xml:space="preserve" style="fill-rule:evenodd;clip-rule:evenodd;stroke-linejoin:round;stroke-miterlimit:1.41421;"><path d="M18.505,32.045c1.475,0 2.672,1.197 2.672,2.672c0,1.475 -1.197,2.673 -2.672,2.673c-1.475,0 -2.673,-1.198 -2.673,-2.673c0,-1.475 1.198,-2.672 2.673,-2.672ZM36.316,32.419c0.093,0.006 0.185,0.013 0.277,0.028c0.244,0.04 0.481,0.119 0.7,0.234c0.273,0.143 0.517,0.342 0.712,0.582c0.176,0.215 0.312,0.462 0.4,0.726c0.197,0.59 0.144,1.247 -0.145,1.797c-0.1,0.192 -0.228,0.369 -0.377,0.525c-0.15,0.156 -0.322,0.29 -0.509,0.398c-0.241,0.139 -0.507,0.234 -0.781,0.279c-0.092,0.014 -0.184,0.022 -0.277,0.027c-3.197,0.065 -6.395,0.002 -9.592,0.002c-0.093,-0.002 -0.185,-0.005 -0.277,-0.016c-0.246,-0.03 -0.486,-0.1 -0.709,-0.206c-0.279,-0.132 -0.531,-0.321 -0.736,-0.552c-0.184,-0.209 -0.33,-0.45 -0.429,-0.71c-0.087,-0.231 -0.137,-0.476 -0.147,-0.723c-0.025,-0.621 0.208,-1.238 0.639,-1.686c0.15,-0.156 0.322,-0.29 0.509,-0.399c0.241,-0.139 0.506,-0.233 0.781,-0.278c0.092,-0.015 0.183,-0.022 0.276,-0.028c3.228,-0.065 6.458,-0.065 9.685,0ZM18.128,21.368c1.444,0 2.617,1.172 2.617,2.617c0,1.444 -1.173,2.617 -2.617,2.617c-1.445,0 -2.618,-1.173 -2.618,-2.617c0,-1.445 1.173,-2.617 2.618,-2.617ZM35.939,21.687c0.093,0.005 0.185,0.013 0.277,0.028c0.244,0.039 0.481,0.118 0.7,0.233c0.273,0.144 0.517,0.343 0.712,0.582c0.176,0.216 0.312,0.463 0.4,0.726c0.069,0.205 0.108,0.42 0.117,0.636c0.025,0.621 -0.209,1.238 -0.639,1.686c-0.15,0.156 -0.322,0.291 -0.509,0.399c-0.241,0.139 -0.507,0.233 -0.781,0.278c-0.092,0.015 -0.184,0.022 -0.277,0.028c-3.197,0.064 -6.395,0.002 -9.592,0.002c-0.093,-0.002 -0.185,-0.006 -0.277,-0.017c-0.276,-0.034 -0.546,-0.117 -0.792,-0.247c-0.192,-0.1 -0.369,-0.228 -0.525,-0.377c-0.448,-0.431 -0.706,-1.038 -0.706,-1.659c0,-0.247 0.04,-0.494 0.118,-0.729c0.088,-0.263 0.224,-0.51 0.4,-0.726c0.196,-0.239 0.439,-0.438 0.713,-0.582c0.219,-0.115 0.456,-0.194 0.7,-0.233c0.092,-0.015 0.183,-0.023 0.276,-0.028c3.228,-0.065 6.458,-0.065 9.685,0ZM12.147,10.61c1.473,0 2.669,1.196 2.669,2.669c0,1.474 -1.196,2.67 -2.669,2.67c-1.473,0 -2.67,-1.196 -2.67,-2.67c0,-1.473 1.197,-2.669 2.67,-2.669ZM35.847,15.579l-16,0c-0.132,-0.003 -0.262,-0.011 -0.392,-0.033c-0.346,-0.06 -0.676,-0.2 -0.96,-0.406c-0.463,-0.336 -0.789,-0.843 -0.902,-1.404c-0.044,-0.214 -0.056,-0.435 -0.038,-0.653c0.019,-0.219 0.069,-0.434 0.149,-0.638c0.095,-0.245 0.233,-0.473 0.405,-0.672c0.201,-0.232 0.448,-0.422 0.723,-0.558c0.236,-0.116 0.492,-0.191 0.753,-0.221c0.116,-0.013 0.145,-0.011 0.262,-0.015c6.377,0 9.757,-0.178 16.131,0.004c0.132,0.011 0.261,0.026 0.39,0.056c0.299,0.07 0.583,0.199 0.831,0.38c0.177,0.128 0.336,0.283 0.469,0.456c0.35,0.453 0.519,1.031 0.47,1.601c-0.018,0.218 -0.068,0.434 -0.148,0.638c-0.095,0.245 -0.233,0.473 -0.405,0.672c-0.201,0.231 -0.448,0.422 -0.723,0.557c-0.236,0.116 -0.492,0.191 -0.753,0.221c-0.116,0.014 -0.145,0.012 -0.262,0.015Z" style="fill:#fff;"/></svg>