<?xml version="1.0" encoding="UTF-8" standalone="no"?><!DOCTYPE svg PUBLIC "-//W3C//DTD SVG 1.1//EN" "http://www.w3.org/Graphics/SVG/1.1/DTD/svg11.dtd"><svg width="100%" height="100%" viewBox="0 0 50 50" version="1.1" xmlns="http://www.w3.org/2000/svg" xmlns:xlink="http://www.w3.org/1999/xlink" xml:space="preserve" style="fill-rule:evenodd;clip-rule:evenodd;stroke-linejoin:round;stroke-miterlimit:1.41421;"><g id="g9801"><path d="M23.041,36.099l-7.359,5.277l-5.932,-1.418l-7.558,6.457l4.124,-12.905l7.087,-1.73l0.681,-4.698l-0.971,-11.294l8.041,-9.151l12.787,-3.052l11.916,9.71l0.025,15.408l-9.61,8.063l-11.765,-0.95c0.007,-0.024 0.012,-0.049 0.016,-0.074c0.012,-0.072 0.01,-0.09 0.011,-0.162l-0.007,-0.081l-1.707,-12.984l4.097,-6.608l6.676,-0.604l2.976,4.927l-2.185,5.778l-4.515,0.205c-0.027,0.002 -0.055,0.004 -0.081,0.007c-0.108,0.016 -0.212,0.053 -0.305,0.108c-0.07,0.042 -0.133,0.093 -0.188,0.154c-0.224,0.244 -0.279,0.609 -0.139,0.909c0.046,0.098 0.112,0.187 0.192,0.26c0.12,0.11 0.272,0.183 0.433,0.207c0.072,0.011 0.09,0.009 0.162,0.009l5.06,-0.229c0.082,-0.008 0.158,-0.019 0.236,-0.046c0.178,-0.062 0.331,-0.185 0.43,-0.345c0.038,-0.061 0.043,-0.078 0.071,-0.144l2.52,-6.664c0.023,-0.07 0.031,-0.087 0.043,-0.161c0.022,-0.137 0.009,-0.279 -0.037,-0.41c-0.025,-0.07 -0.037,-0.085 -0.071,-0.15l-3.452,-5.714c-0.038,-0.057 -0.046,-0.073 -0.092,-0.124c-0.086,-0.096 -0.194,-0.171 -0.313,-0.218c-0.074,-0.029 -0.147,-0.043 -0.225,-0.054c-0.077,-0.004 -0.076,-0.004 -0.154,-0.001l-7.603,0.689c-0.077,0.01 -0.15,0.023 -0.223,0.052c-0.119,0.046 -0.227,0.119 -0.313,0.214c-0.046,0.05 -0.054,0.066 -0.093,0.122l-4.47,7.209c-0.013,0.024 -0.028,0.047 -0.039,0.071c-0.048,0.097 -0.077,0.204 -0.084,0.311c-0.004,0.073 0,0.091 0.006,0.162l1.746,13.278c0.004,0.026 0.008,0.053 0.014,0.08c0.025,0.105 0.07,0.206 0.133,0.294l0.008,0.01Z" style="fill:#4d4d4d;"/></g></svg>